<svg version="1.1" viewBox="0 0 62.156 66.461" xml:space="preserve" xmlns="http://www.w3.org/2000/svg"><g transform="translate(61.642 -1.1685)"><path d="m-61.584 66.554c0.08095-0.67735 0.75104-4.0869 1.4891-7.5767 0.73804-3.4898 1.3419-6.5536 1.3419-6.8084s0.55044-1.0309 1.2232-1.7247c1.2232-1.2614 1.2232-1.2614 1.2568-22.957 0.0376-24.305-0.11884-22.362 1.9763-24.548 1.7214-1.7964 1.5196-1.7791 20.529-1.7685 12.79 0.0071 17.093 0.08826 17.527 0.33073 0.31656 0.17674 2.8918 2.5501 5.7227 5.274 4.3177 4.1545 5.3762 5.0384 6.5682 5.4847 1.8394 0.68868 3.2191 1.843 3.9108 3.2718 0.54608 1.128 0.55293 1.393 0.55293 21.385 0 20.243 0 20.243-0.65931 20.863-0.92253 0.86668-2.1585 0.82446-2.9544-0.10092-0.61958-0.72031-0.61958-0.72031-0.61958-19.888 0-15.456-0.066-19.168-0.34068-19.168-0.18737 0-0.90175 0.56964-1.5875 1.2659-1.2468 1.2659-1.2468 1.2659-1.2483 20.704-8e-4 11.796-0.10278 19.802-0.25914 20.364-0.36016 1.2943-1.752 2.8884-3.028 3.4679-1.0109 0.45915-2.1166 0.48986-18.01 0.50016-13.266 9e-3 -17.535 0.0939-19.711 0.39363-2.9509 0.40646-9.0664 1.4693-12.037 2.092-1.789 0.37501-1.789 0.37501-1.6418-0.85656zm11.601-5.406c0.16067-0.0553 4.1962-5.1405 4.1932-5.2839-7.67e-4 -0.0366-0.48017-0.0939-1.0654-0.12719-0.5852-0.0333-1.3053-0.18976-1.6003-0.34762-0.74059-0.39635-1.5641-1.8228-1.5653-2.7113-9.89e-4 -0.73831-9.89e-4 -0.73831-2.1679-0.66146-2.167 0.0769-2.167 0.0769-3.0267 3.5104-0.47287 1.8884-0.83719 3.4509-0.80961 3.4721 0.02758 0.0212 0.42561 0.22941 0.8845 0.46267 0.45889 0.23325 1.0827 0.82589 1.3862 1.317 0.55182 0.89286 0.55182 0.89286 2.0761 0.66057 0.83834-0.12776 1.6012-0.25877 1.6953-0.29113zm38.59-17.301c0-16.581 0-16.581-3.3734-13.317-1.8554 1.7952-9.3446 9.2566-16.643 16.581-13.269 13.317-13.269 13.317 3.3734 13.317 16.643 0 16.643 0 16.643-16.581zm-17.91 8.9157c-0.86994-0.36589-1.4594-1.4165-1.254-2.2349 0.34273-1.3656 0.83246-1.477 6.4873-1.477 4.8571 0 5.2427 0.0359 5.8943 0.54837 0.84178 0.66214 0.92099 1.7622 0.19179 2.6635-0.49624 0.61336-0.5976 0.6257-5.6224 0.68432-2.8144 0.0328-5.378-0.0501-5.6969-0.18421zm-10.711-17.542c6.3554-6.2967 12.984-12.851 14.73-14.564 3.175-3.116 3.175-3.116 1.9844-4.1612-1.1906-1.0453-1.1906-1.0453-6.645-1.046-5.1169-6.61e-4 -5.4976-0.03465-6.1516-0.54909-0.90061-0.70842-0.9576-2.0988-0.11808-2.8809 0.5531-0.51529 0.89929-0.53947 7.7219-0.53947 7.1429 0 7.1429 0 11.747 4.5641 4.6038 4.5641 4.6038 4.5641 6.865 2.1828 2.2612-2.3813 2.2612-2.3813-2.8605-7.3441-5.1217-4.9629-5.1217-4.9629-22.061-4.8948-16.94 0.06807-16.94 0.06807-17.007 20.375-0.03728 11.169 0.0016 20.307 0.08637 20.307 0.08479 0 5.354-5.1518 11.709-11.448zm-4.915-12.361c-0.69389-0.42307-0.8599-0.69492-0.8599-1.4081 0-0.58174 0.2093-1.0804 0.61236-1.4591 0.5849-0.54949 0.84054-0.57529 5.7006-0.57529 5.0495 0 5.0931 5e-3 5.7376 0.64944 0.72026 0.72026 0.79054 1.1326 0.35567 2.0871-0.48938 1.0741-1.2779 1.2323-6.1348 1.2313-4.0708-7.9e-4 -4.6425-0.0564-5.4115-0.52527z"/></g></svg>
