<svg class="thet-loader" width="160" height="160" viewBox="0 0 157 160" fill="none" xmlns="http://www.w3.org/2000/svg">
<path d="M78.7532 33.5521C76.0345 33.5521 73.8262 31.3437 73.8262 28.6198V4.93229C73.8315 2.20833 76.0345 0 78.7532 0C81.4668 0 83.6751 2.20833 83.6751 4.93229V28.625C83.6751 31.3437 81.4668 33.5521 78.7532 33.5521Z" fill="#1B49C1"/>
<path d="M61.3111 36.5206C59.3007 36.5206 57.4152 35.281 56.6861 33.2758L48.5975 11.0154C47.6704 8.45291 48.9881 5.62479 51.5402 4.69771C54.0923 3.77062 56.9152 5.08313 57.8475 7.64042L65.9361 29.906C66.8631 32.4633 65.5454 35.2915 62.9934 36.2238C62.4361 36.4269 61.8684 36.5206 61.3111 36.5206Z" fill="#E8ECF9"/>
<path d="M45.9415 45.2867C44.5352 45.2867 43.1394 44.6825 42.1654 43.5211L26.9623 25.3753C25.2175 23.2867 25.4883 20.1825 27.5717 18.4273C29.6498 16.6773 32.7592 16.9534 34.504 19.0367L49.7071 37.1877C51.4519 39.2711 51.181 42.3805 49.0977 44.1305C48.181 44.9065 47.056 45.2867 45.9415 45.2867Z" fill="#C6D1EF"/>
<path d="M34.4771 58.786C33.6386 58.786 32.7948 58.5777 32.0188 58.1245L11.5396 46.2756C9.18022 44.9162 8.37814 41.9058 9.73752 39.5464C11.0917 37.187 14.1073 36.3797 16.4563 37.7391L36.9406 49.5881C39.2948 50.9475 40.1021 53.9631 38.7427 56.3225C37.8313 57.9058 36.175 58.786 34.4771 58.786Z" fill="#C6D1EF"/>
<path d="M28.3318 75.4015C28.0454 75.4015 27.7589 75.3807 27.4673 75.3285L4.1808 71.2088C1.50372 70.7348 -0.282737 68.1775 0.186009 65.4952C0.659969 62.8129 3.2433 61.0317 5.88913 61.4952L29.1808 65.615C31.8579 66.089 33.6443 68.6463 33.1756 71.3285C32.7485 73.7192 30.6756 75.4015 28.3318 75.4015Z" fill="#A4B6E6"/>
<path d="M4.91457 97.229C2.57602 97.229 0.497903 95.5467 0.0760231 93.1561C-0.397937 90.4738 1.39373 87.9166 4.07081 87.4426L27.3625 83.3332C30.0187 82.854 32.5916 84.6509 33.0656 87.3384C33.5344 90.0155 31.7479 92.5728 29.0656 93.0467L5.77394 97.1561C5.48748 97.2083 5.20102 97.229 4.91457 97.229Z" fill="#A4B6E6"/>
<path d="M13.6797 121.651C11.9766 121.651 10.3256 120.766 9.41411 119.188C8.05474 116.828 8.86203 113.808 11.2162 112.453L31.7006 100.615C34.0495 99.2502 37.0652 100.058 38.4245 102.417C39.7839 104.776 38.9766 107.797 36.6224 109.151L16.1381 120.99C15.362 121.438 14.5183 121.651 13.6797 121.651Z" fill="#8DA4E0"/>
<path d="M30.2381 141.599C29.1235 141.599 27.9985 141.219 27.0766 140.443C24.9933 138.693 24.7225 135.583 26.4725 133.5L41.6808 115.354C43.4256 113.271 46.5298 113 48.6131 114.755C50.6964 116.505 50.9673 119.614 49.2173 121.698L34.0089 139.838C33.0402 141 31.6443 141.599 30.2381 141.599Z" fill="#8DA4E0"/>
<path d="M52.6171 154.666C52.0598 154.666 51.4921 154.572 50.9348 154.369C48.3775 153.437 47.065 150.609 47.9973 148.052L56.0911 125.796C57.0181 123.234 59.8463 121.921 62.3983 122.854C64.9504 123.786 66.2681 126.614 65.3358 129.171L57.2421 151.427C56.5181 153.427 54.6275 154.666 52.6171 154.666Z" fill="#7692DA"/>
<path d="M78.1133 159.286C75.3893 159.286 73.1914 157.078 73.1914 154.354L73.1967 130.667C73.1967 127.943 75.3999 125.734 78.1186 125.734C80.8374 125.734 83.0405 127.943 83.0405 130.667L83.0352 154.354C83.0352 157.078 80.8268 159.286 78.1133 159.286Z" fill="#7692DA"/>
<path d="M103.638 154.891C101.627 154.891 99.7368 153.651 99.0129 151.646L90.9296 129.386C90.0025 126.823 91.3202 123.995 93.8723 123.063C96.4296 122.131 99.2525 123.459 100.185 126.011L108.263 148.276C109.19 150.834 107.872 153.667 105.32 154.594C104.768 154.797 104.195 154.891 103.638 154.891Z" fill="#5F7FD3"/>
<path d="M126.128 142.015C124.722 142.015 123.331 141.411 122.357 140.25L107.16 122.099C105.415 120.01 105.686 116.901 107.769 115.156C109.857 113.406 112.962 113.682 114.706 115.765L129.899 133.916C131.649 136 131.373 139.114 129.29 140.859C128.368 141.635 127.248 142.015 126.128 142.015Z" fill="#5F7FD3"/>
<path d="M142.863 122.209C142.024 122.209 141.18 121.995 140.404 121.547L119.925 109.698C117.571 108.339 116.764 105.318 118.123 102.964C119.488 100.599 122.493 99.7973 124.842 101.162L145.321 113.011C147.68 114.37 148.482 117.386 147.123 119.745C146.212 121.329 144.561 122.209 142.863 122.209Z" fill="#5F7FD3"/>
<path d="M151.832 97.8644C151.546 97.8644 151.259 97.8436 150.973 97.7914L127.681 93.6716C125.004 93.1977 123.217 90.6352 123.691 87.9581C124.165 85.2758 126.738 83.4946 129.395 83.9581L152.681 88.0779C155.363 88.5519 157.145 91.1092 156.676 93.7914C156.254 96.1821 154.176 97.8644 151.832 97.8644Z" fill="#496DCD"/>
<path d="M128.639 76.0259C126.301 76.0259 124.217 74.3436 123.801 71.9477C123.327 69.2706 125.113 66.7133 127.796 66.2394L151.087 62.1352C153.754 61.6665 156.316 63.4529 156.785 66.1352C157.259 68.8175 155.467 71.3748 152.79 71.8488L129.499 75.9529C129.212 76.0051 128.926 76.0259 128.639 76.0259Z" fill="#496DCD"/>
<path d="M122.702 59.3382C120.999 59.3382 119.348 58.458 118.436 56.8695C117.077 54.5153 117.889 51.4997 120.244 50.1351L140.728 38.3018C143.072 36.9424 146.092 37.7445 147.452 40.1091C148.806 42.4632 147.999 45.4841 145.645 46.8434L125.155 58.682C124.384 59.1299 123.54 59.3382 122.702 59.3382Z" fill="#1B49C1"/>
<path d="M111.41 45.6929C110.295 45.6929 109.17 45.3179 108.249 44.5419C106.165 42.7919 105.894 39.6773 107.644 37.594L122.858 19.4533C124.608 17.3648 127.707 17.0992 129.79 18.8492C131.868 20.5992 132.139 23.7085 130.394 25.7971L115.181 43.9377C114.207 45.0992 112.816 45.6929 111.41 45.6929Z" fill="#1B49C1"/>
<path d="M96.1491 36.74C95.5866 36.74 95.0188 36.6411 94.4616 36.4431C91.9095 35.5109 90.5918 32.6827 91.5241 30.1202L99.623 7.86503C100.555 5.30774 103.378 3.99523 105.936 4.92232C108.488 5.8546 109.805 8.68274 108.873 11.2452L100.769 33.5004C100.045 35.5004 98.1543 36.74 96.1491 36.74Z" fill="#1B49C1"/>
</svg>
