<svg viewBox="0 0 474 338" fill="none" xmlns="http://www.w3.org/2000/svg">
<path d="M237.361 1.02483e-05C139.257 0.00266348 41.1512 0.522332 37.5919 1.55664C34.9593 2.32124 32.9343 3.27422 33.0919 3.67383C33.2495 4.07344 52.7271 20.5658 76.377 40.3242C215.312 156.398 236.1 173.666 236.885 173.666C237.361 173.666 259.042 155.996 285.065 134.4C311.087 112.805 357.015 74.6959 387.127 49.7149C417.239 24.7337 441.877 3.98586 441.877 3.60938C441.877 3.23294 439.74 2.30394 437.127 1.54493C433.569 0.511343 335.466 -0.00264676 237.361 1.02483e-05ZM5.80283 27.3399C5.31923 27.8234 3.90051 30.9083 2.65047 34.1934L0.377039 40.166L0.0762698 165.166C-0.14007 254.929 0.0940213 291.857 0.904382 296.166C4.58926 315.761 21.3589 332.896 40.377 336.496C47.8427 337.91 426.263 337.979 433.078 336.568C453.079 332.428 469.482 315.559 472.854 295.664C473.626 291.106 473.869 251.96 473.666 164.664L473.377 40.164L471.137 34.2226C469.904 30.9547 468.554 27.9732 468.137 27.5957C467.72 27.2181 417.877 68.0601 357.377 118.357C296.877 168.655 246.027 210.53 244.377 211.412C240.54 213.464 233.235 213.472 229.377 211.427C227.727 210.553 212.202 197.974 194.877 183.474C69.8468 78.8316 6.56764 26.575 5.80283 27.3399Z" fill="#0014A8"/>
</svg>
