<svg wclassth="607" height="608" viewBox="0 0 607 608" fill="none" xmlns="http://www.w3.org/2000/svg">
<g class="core-circle">
<g class="beam beam-12">
<g class="segment-1">
<path class="4" d="M384.796 11.68L375.507 46.3462C396.624 52.2615 417.352 60.891 437.217 72.3604C457.097 83.8377 474.942 97.4836 490.631 112.826L515.887 87.5685C497.698 69.6266 477.316 54.0526 455.223 41.2205C433.086 28.4442 409.423 18.5196 384.796 11.68Z" fill="#229974"/>
<path class="3" d="M375.249 47.3083L365.967 81.9466C384.044 87.043 401.787 94.445 418.796 104.265C435.819 114.093 451.109 125.769 464.568 138.888L489.927 113.529C474.298 98.2471 456.521 84.6547 436.719 73.222C416.93 61.7969 396.283 53.2017 375.249 47.3083Z" fill="#229974"/>
<path class="2" d="M365.708 82.9155L355.205 122.111C369.851 126.283 384.225 132.305 398.012 140.264C411.812 148.232 424.224 157.679 435.168 168.288L463.86 139.595C450.461 126.538 435.239 114.918 418.294 105.135C401.362 95.3589 383.701 87.9904 365.708 82.9155Z" fill="#229974"/>
<path class="1" d="M354.948 123.074L345.666 157.719C357.532 161.13 368.94 165.974 379.635 172.144C390.312 178.338 400.193 185.811 409.063 194.396L434.464 168.994C423.58 158.445 411.238 149.051 397.515 141.128C383.805 133.212 369.511 127.225 354.948 123.074Z" fill="#229974"/>
</g>
</g>
<g class="beam beam-11">
<g class="segment-1">
<path class="subsegment-4" d="M227.063 10.1893L236.351 44.8555C257.597 39.4198 279.862 36.5294 302.801 36.5293C325.756 36.5294 348.033 39.4244 369.291 44.8672L378.535 10.3651C353.812 3.92135 328.373 0.625099 302.824 0.558671C277.265 0.562293 251.81 3.79925 227.063 10.1893Z" fill="#229974"/>
<path class="subsegment-3" d="M236.609 45.8184L245.89 80.4568C264.093 75.8323 283.16 73.371 302.801 73.3709C322.457 73.3711 341.536 75.8369 359.752 80.4688L369.033 45.8281C347.858 40.4082 325.666 37.5253 302.801 37.5253C279.95 37.5254 257.772 40.4053 236.609 45.8184Z" fill="#229974"/>
<path class="subsegment-2" d="M246.15 81.4257L256.652 120.621C271.422 116.912 286.881 114.939 302.801 114.939C318.735 114.939 334.208 116.915 348.99 120.631L359.492 81.4356C341.36 76.8272 322.367 74.375 302.801 74.375C283.249 74.3751 264.27 76.8245 246.15 81.4257Z" fill="#229974"/>
<path class="subsegment-1" d="M256.91 121.584L266.193 156.228C278.176 153.25 290.477 151.741 302.824 151.736C315.168 151.763 327.462 153.294 339.436 156.293L348.733 121.594C334.033 117.9 318.647 115.936 302.801 115.936C286.97 115.936 271.598 117.897 256.91 121.584Z" fill="#229974"/>
</g>
</g>
<g class="beam beam-10">
<g class="segment-1">
<path class="subsegment-4" d="M90.0419 87.9446L115.419 113.322C131.101 97.9918 148.938 84.3559 168.803 72.8865C188.683 61.4093 209.423 52.7777 230.554 46.8623L221.309 12.3605C196.676 19.1416 172.998 29.0064 150.838 41.7234C128.705 54.506 108.279 70.0371 90.0419 87.9446Z" fill="#229974"/>
<path class="subsegment-3" d="M116.124 114.026L141.481 139.383C154.933 126.277 170.215 114.612 187.224 104.792C204.247 94.9636 222.003 87.5595 240.094 82.463L230.811 47.8225C209.763 53.7166 189.103 62.3156 169.301 73.7484C149.512 85.1736 131.745 98.7569 116.124 114.026Z" fill="#229974"/>
<path class="subsegment-2" d="M142.19 140.092L170.883 168.785C181.819 158.188 194.221 148.751 208.008 140.791C221.808 132.824 236.195 126.798 250.855 122.625L240.352 83.4298C222.345 88.5049 204.671 95.8778 187.726 105.661C170.794 115.437 155.582 127.048 142.19 140.092Z" fill="#229974"/>
<path class="subsegment-1" d="M171.589 169.491L196.951 194.852C205.839 186.281 215.737 178.824 226.428 172.646C237.131 166.497 248.544 161.676 260.413 158.287L251.114 123.588C236.537 127.739 222.231 133.731 208.507 141.654C194.797 149.569 182.465 158.954 171.589 169.491Z" fill="#229974"/>
</g>
</g>
<g class="beam beam-9">
<g class="segment-1">
<path class="subsegment-4" d="M11.1321 221.981L45.7984 231.27C51.7137 210.153 60.3432 189.425 71.8125 169.56C83.2898 149.681 96.9357 131.835 112.278 116.147L87.0207 90.8901C69.0787 109.079 53.5047 129.461 40.6727 151.554C27.8963 173.691 17.9717 197.355 11.1321 221.981Z" fill="#229974"/>
<path class="subsegment-3" d="M46.7615 231.527L81.3997 240.809C86.4961 222.733 93.8982 204.989 103.718 187.98C113.547 170.957 125.222 155.667 138.341 142.208L112.982 116.85C97.7003 132.478 84.1078 150.255 72.6751 170.057C61.25 189.846 52.6549 210.493 46.7615 231.527Z" fill="#229974"/>
<path class="subsegment-2" d="M82.3677 241.068L121.563 251.571C125.735 236.926 131.757 222.551 139.716 208.765C147.684 194.965 157.131 182.553 167.74 171.609L139.047 142.916C125.99 156.315 114.37 171.537 104.587 188.482C94.8111 205.414 87.4426 223.076 82.3677 241.068Z" fill="#229974"/>
<path class="subsegment-1" d="M122.527 251.829L157.172 261.112C160.583 249.245 165.427 237.838 171.597 227.142C177.792 216.466 185.265 206.584 193.849 197.714L168.447 172.313C157.898 183.197 148.504 195.539 140.581 209.262C132.665 222.972 126.678 237.266 122.527 251.829Z" fill="#229974"/>
</g>
</g>
<g class="beam beam-8">
<g class="segment-1">
<path class="subsegment-4" d="M9.63068 379.084L44.2969 369.795C38.8612 348.55 35.9708 326.284 35.9707 303.345C35.9708 280.391 38.8658 258.113 44.3086 236.855L9.80647 227.611C3.36274 252.334 0.0664992 277.773 7.23832e-05 303.322C0.00369594 328.881 3.24065 354.337 9.63068 379.084Z" fill="#229974"/>
<path class="subsegment-3" d="M45.2598 369.537L79.8982 360.256C75.2737 342.053 72.8124 322.986 72.8123 303.346C72.8125 283.689 75.2783 264.61 79.9101 246.395L45.2695 237.113C39.8496 258.289 36.9667 280.48 36.9667 303.346C36.9668 326.196 39.8467 348.375 45.2598 369.537Z" fill="#229974"/>
<path class="subsegment-2" d="M80.8671 359.996L120.062 349.494C116.353 334.725 114.381 319.265 114.381 303.346C114.381 287.411 116.356 271.938 120.072 257.156L80.877 246.654C76.2686 264.786 73.8164 283.779 73.8164 303.346C73.8165 322.897 76.2659 341.877 80.8671 359.996Z" fill="#229974"/>
<path class="subsegment-1" d="M121.025 349.236L155.67 339.953C152.691 327.97 151.182 315.669 151.178 303.322C151.204 290.978 152.735 278.684 155.734 266.711L121.035 257.414C117.342 272.113 115.377 287.499 115.377 303.345C115.377 319.177 117.339 334.549 121.025 349.236Z" fill="#229974"/>
</g>
</g>
<g class="beam beam-7">
<g class="segment-1">
<path class="subsegment-4" d="M86.3938 516.836L111.771 491.458C96.441 475.777 82.8052 457.94 71.3357 438.074C59.8585 418.195 51.2269 397.455 45.3115 376.324L10.8097 385.569C17.5909 410.202 27.4556 433.88 40.1726 456.04C52.9552 478.173 68.4864 498.599 86.3938 516.836Z" fill="#229974"/>
<path class="subsegment-3" d="M112.476 490.754L137.834 465.397C124.727 451.945 113.062 436.663 103.242 419.654C93.4138 402.631 86.0097 384.875 80.9132 366.784L46.2727 376.067C52.1668 397.115 60.7658 417.775 72.1986 437.577C83.6238 457.366 97.2071 475.133 112.476 490.754Z" fill="#229974"/>
<path class="subsegment-2" d="M138.543 464.688L167.237 435.995C156.64 425.059 147.202 412.657 139.242 398.87C131.275 385.07 125.249 370.683 121.076 356.023L81.881 366.525C86.9561 384.533 94.329 402.207 104.112 419.152C113.888 436.084 125.499 451.296 138.543 464.688Z" fill="#229974"/>
<path class="subsegment-1" d="M167.941 435.29L193.302 409.928C184.731 401.04 177.274 391.142 171.097 380.451C164.948 369.748 160.127 358.335 156.737 346.466L122.038 355.765C126.19 370.341 132.181 384.648 140.104 398.371C148.02 412.082 157.405 424.414 167.941 435.29Z" fill="#229974"/>
</g>
</g>
<g class="beam beam-6">
<g class="segment-1">
<path class="subsegment-4" d="M222.433 596.217L231.721 561.551C210.604 555.636 189.877 547.006 170.011 535.537C150.132 524.06 132.287 510.414 116.598 495.071L91.3412 520.329C109.53 538.271 129.913 553.845 152.006 566.677C174.142 579.453 197.806 589.378 222.433 596.217Z" fill="#229974"/>
<path class="subsegment-3" d="M231.98 560.589L241.261 525.951C223.185 520.854 205.442 513.452 188.432 503.632C171.41 493.804 156.119 482.129 142.66 469.01L117.302 494.369C132.931 509.65 150.707 523.243 170.51 534.675C190.299 546.101 210.946 554.696 231.98 560.589Z" fill="#229974"/>
<path class="subsegment-2" d="M241.52 524.982L252.023 485.787C237.378 481.615 223.003 475.593 209.217 467.633C195.417 459.666 183.005 450.218 172.061 439.609L143.368 468.302C156.767 481.359 171.989 492.98 188.935 502.763C205.867 512.539 223.528 519.907 241.52 524.982Z" fill="#229974"/>
<path class="subsegment-1" d="M252.28 484.824L261.563 450.179C249.696 446.767 238.289 441.923 227.593 435.754C216.917 429.559 207.035 422.086 198.165 413.502L172.765 438.904C183.648 449.452 195.99 458.847 209.713 466.77C223.423 474.685 237.717 480.673 252.28 484.824Z" fill="#229974"/>
</g>
</g>
<g class="beam beam-5">
<g class="segment-1">
<path class="subsegment-4" d="M378.535 597.397L369.246 562.73C348.001 568.166 325.735 571.057 302.797 571.057C279.842 571.057 257.565 568.162 236.307 562.719L227.062 597.221C251.786 603.665 277.224 606.961 302.773 607.027C328.332 607.024 353.788 603.787 378.535 597.397Z" fill="#229974"/>
<path class="subsegment-3" d="M368.988 561.768L359.707 527.129C341.505 531.754 322.437 534.215 302.797 534.215C283.141 534.215 264.061 531.749 245.846 527.117L236.564 561.758C257.74 567.178 279.931 570.061 302.797 570.061C325.647 570.061 347.826 567.181 368.988 561.768Z" fill="#229974"/>
<path class="subsegment-2" d="M359.447 526.16L348.945 486.965C334.176 490.674 318.716 492.647 302.797 492.647C286.862 492.646 271.389 490.671 256.607 486.955L246.105 526.15C264.237 530.759 283.23 533.211 302.797 533.211C322.348 533.211 341.328 530.761 359.447 526.16Z" fill="#229974"/>
<path class="subsegment-1" d="M348.687 486.002L339.404 451.358C327.421 454.336 315.12 455.845 302.773 455.85C290.429 455.823 278.136 454.292 266.162 451.293L256.865 485.992C271.565 489.686 286.95 491.65 302.796 491.65C318.628 491.65 334 489.689 348.687 486.002Z" fill="#229974"/>
</g>
</g>
<g class="beam beam-4">
<g class="segment-1">
<path class="subsegment-4" d="M516.04 520.481L490.663 495.104C474.981 510.434 457.144 524.07 437.279 535.539C417.399 547.017 396.659 555.648 375.528 561.563L384.773 596.065C409.406 589.284 433.084 579.419 455.244 566.702C477.377 553.92 497.804 538.389 516.04 520.481Z" fill="#229974"/>
<path class="subsegment-3" d="M489.958 494.4L464.601 469.042C451.149 482.149 435.867 493.814 418.858 503.634C401.835 513.462 384.079 520.866 365.988 525.963L375.271 560.603C396.319 554.709 416.979 546.11 436.781 534.677C456.57 523.252 474.337 509.669 489.958 494.4Z" fill="#229974"/>
<path class="subsegment-2" d="M463.892 468.333L435.199 439.64C424.263 450.237 411.861 459.675 398.074 467.635C384.274 475.602 369.887 481.628 355.227 485.801L365.73 524.996C383.737 519.921 401.411 512.548 418.356 502.765C435.288 492.989 450.5 481.378 463.892 468.333Z" fill="#229974"/>
<path class="subsegment-1" d="M434.493 438.935L409.131 413.574C400.243 422.145 390.345 429.602 379.654 435.779C368.951 441.928 357.539 446.749 345.669 450.139L354.968 484.838C369.545 480.686 383.851 474.695 397.575 466.772C411.285 458.856 423.617 449.471 434.493 438.935Z" fill="#229974"/>
</g>
</g>
<g class="beam beam-3">
<g class="segment-1">
<path class="subsegment-4" d="M595.669 384.409L561.002 375.121C555.087 396.238 546.458 416.965 534.988 436.831C523.511 456.71 509.865 474.555 494.522 490.244L519.78 515.501C537.722 497.312 553.296 476.929 566.128 454.836C578.904 432.7 588.829 409.036 595.669 384.409Z" fill="#229974"/>
<path class="subsegment-3" d="M560.039 374.862L525.401 365.581C520.305 383.657 512.903 401.4 503.083 418.409C493.254 435.432 481.579 450.722 468.46 464.182L493.819 489.54C509.101 473.911 522.693 456.134 534.126 436.332C545.551 416.543 554.146 395.896 560.039 374.862Z" fill="#229974"/>
<path class="subsegment-2" d="M524.431 365.321L485.236 354.819C481.064 369.464 475.042 383.838 467.082 397.625C459.115 411.425 449.668 423.837 439.058 434.781L467.752 463.473C480.809 450.075 492.429 434.852 502.212 417.907C511.988 400.975 519.356 383.314 524.431 365.321Z" fill="#229974"/>
<path class="subsegment-1" d="M484.274 354.561L449.629 345.278C446.218 357.145 441.374 368.552 435.204 379.247C429.009 389.924 421.536 399.805 412.952 408.675L438.354 434.076C448.902 423.193 458.297 410.851 466.22 397.128C474.135 383.417 480.123 369.124 484.274 354.561Z" fill="#229974"/>
</g>
</g>
<g class="beam beam-2">
<g class="segment-1">
<path class="subsegment-4" d="M596.848 227.611L562.182 236.9C567.617 258.146 570.508 280.411 570.508 303.35C570.508 326.304 567.613 348.582 562.17 369.84L596.672 379.084C603.116 354.361 606.412 328.922 606.478 303.373C606.475 277.814 603.238 252.358 596.848 227.611Z" fill="#229974"/>
<path class="subsegment-3" d="M561.219 237.158L526.58 246.439C531.205 264.642 533.666 283.709 533.666 303.35C533.666 323.006 531.2 342.085 526.568 360.301L561.209 369.582C566.629 348.407 569.512 326.215 569.512 303.35C569.512 280.499 566.632 258.321 561.219 237.158Z" fill="#229974"/>
<path class="subsegment-2" d="M525.611 246.699L486.416 257.201C490.125 271.97 492.098 287.43 492.098 303.349C492.098 319.284 490.122 334.757 486.406 349.539L525.601 360.041C530.21 341.909 532.662 322.916 532.662 303.349C532.662 283.798 530.213 264.819 525.611 246.699Z" fill="#229974"/>
<path class="subsegment-1" d="M485.453 257.459L450.809 266.742C453.788 278.725 455.296 291.026 455.301 303.373C455.274 315.717 453.743 328.011 450.744 339.985L485.443 349.281C489.137 334.582 491.102 319.196 491.102 303.35C491.102 287.519 489.14 272.146 485.453 257.459Z" fill="#229974"/>
</g>
</g>
<g class="beam beam-1">
<g class="segment-1">
<path class="subsegment-4" d="M519.661 91.3984L494.283 116.776C509.613 132.457 523.249 150.294 534.719 170.16C546.196 190.039 554.827 210.78 560.743 231.911L595.245 222.666C588.464 198.033 578.599 174.354 565.882 152.195C553.099 130.062 537.568 109.635 519.661 91.3984Z" fill="#229974"/>
<path class="subsegment-3" d="M493.578 117.48L468.221 142.837C481.327 156.289 492.992 171.571 502.812 188.58C512.64 205.603 520.045 223.359 525.141 241.45L559.782 232.168C553.887 211.119 545.288 190.459 533.856 170.657C522.43 150.868 508.847 133.101 493.578 117.48Z" fill="#229974"/>
<path class="subsegment-2" d="M467.512 143.547L438.818 172.239C449.415 183.175 458.853 195.578 466.813 209.364C474.78 223.164 480.806 237.552 484.979 252.212L524.174 241.709C519.099 223.702 511.726 206.027 501.943 189.082C492.167 172.15 480.556 156.938 467.512 143.547Z" fill="#229974"/>
<path class="subsegment-1" d="M438.113 172.944L412.752 198.306C421.323 207.194 428.78 217.093 434.958 227.783C441.107 238.487 445.928 249.899 449.317 261.768L484.016 252.47C479.865 237.893 473.873 223.586 465.95 209.863C458.035 196.153 448.65 183.821 438.113 172.944Z" fill="#229974"/>
</g>
</g>
<g class="beam beam-0">
<g class="segment-1">
<path class="subsegment-4" d="M303 162C225.129 162 162 225.128 162 303C162 380.873 225.129 444 303 444C380.873 444 444 380.873 444 303C444 225.128 380.873 162 303 162ZM303 195.84C362.183 195.84 410.16 243.817 410.16 303C410.16 362.183 362.183 410.16 303 410.16C243.818 410.16 195.84 362.183 195.84 303C195.84 243.817 243.818 195.84 303 195.84Z" fill="#229974"/>
<path class="subsegment-3" d="M303 197.25C244.596 197.25 197.25 244.596 197.25 303C197.25 361.404 244.596 408.75 303 408.75C361.404 408.75 408.75 361.404 408.75 303C408.75 244.596 361.404 197.25 303 197.25ZM303 231.09C342.715 231.09 374.91 263.286 374.91 303C374.91 342.715 342.715 374.91 303 374.91C263.286 374.91 231.09 342.715 231.09 303C231.09 263.286 263.286 231.09 303 231.09Z" fill="#229974"/>
<path class="subsegment-2" d="M303 232.5C264.064 232.5 232.5 264.064 232.5 303C232.5 341.936 264.064 373.5 303 373.5C341.936 373.5 373.5 341.936 373.5 303C373.5 264.064 341.936 232.5 303 232.5ZM303 266.34C323.247 266.34 339.66 282.754 339.66 303C339.66 323.247 323.247 339.66 303 339.66C282.754 339.66 266.34 323.247 266.34 303C266.34 282.754 282.754 266.34 303 266.34Z" fill="#229974"/>
<path class="subsegment-1" d="M303 338.25C322.468 338.25 338.25 322.468 338.25 303C338.25 283.532 322.468 267.75 303 267.75C283.532 267.75 267.75 283.532 267.75 303C267.75 322.468 283.532 338.25 303 338.25Z" fill="#229974"/>
</g>
</g>
</g>
</svg>
